<svg width="110" height="46" viewBox="0 0 110 46" fill="none" xmlns="http://www.w3.org/2000/svg">
<g clip-path="url(#clip0_137_2194)">
<path d="M41.0751 29.4273V12.6802H47.5732C48.8015 12.6802 49.8907 12.8931 50.8407 13.3204C51.7893 13.7476 52.5362 14.3651 53.0787 15.1742C53.6211 15.9833 53.8924 16.9543 53.8924 18.087C53.8924 19.2198 53.641 20.2219 53.1383 21.0239C52.6356 21.826 51.9071 22.4349 50.9543 22.8537C50.0015 23.2724 48.8456 23.4811 47.4894 23.4811H44.6181V29.4259H41.0766L41.0751 29.4273ZM44.6167 20.5044H47.4284C48.3457 20.5044 49.0614 20.317 49.5769 19.9423C50.0909 19.5675 50.3494 18.9728 50.3494 18.1594C50.3494 17.346 50.0867 16.7286 49.5598 16.3297C49.033 15.9308 48.3315 15.7321 47.4539 15.7321H44.6181V20.5044H44.6167Z" fill="#11213A"/>
<path d="M60.7468 29.7864C59.5895 29.7864 58.5571 29.5167 57.6469 28.9787C56.7381 28.4407 56.021 27.6884 55.4984 26.7245C54.9758 25.7593 54.7145 24.6478 54.7145 23.3873C54.7145 22.4391 54.8636 21.5732 55.1633 20.7911C55.4629 20.0103 55.8832 19.3332 56.4257 18.764C56.9681 18.1934 57.6086 17.7548 58.3456 17.4482C59.084 17.1415 59.8835 16.9868 60.7454 16.9868C61.8942 16.9868 62.8655 17.2338 63.6593 17.7292C64.4531 18.2232 65.0339 18.8691 65.4003 19.6668L64.909 20.4206V17.3459H67.9478V29.4272H64.909V26.3526L65.4003 27.1064C65.0339 27.9041 64.4531 28.55 63.6593 29.044C62.8655 29.538 61.8942 29.7849 60.7454 29.7849L60.7468 29.7864ZM61.3092 26.76C61.9155 26.76 62.458 26.6223 62.9365 26.3469C63.4151 26.0716 63.7928 25.6826 64.0669 25.1801C64.3424 24.6776 64.4801 24.08 64.4801 23.3859C64.4801 22.6917 64.3424 22.0941 64.0669 21.5916C63.7914 21.0891 63.4151 20.7002 62.9365 20.4248C62.458 20.1494 61.9155 20.0118 61.3092 20.0118C60.7028 20.0118 60.1731 20.1494 59.6932 20.4248C59.2146 20.7002 58.8369 21.0891 58.5628 21.5916C58.2873 22.0941 58.1496 22.6917 58.1496 23.3859C58.1496 24.08 58.2873 24.6776 58.5628 25.1801C58.8383 25.6826 59.2146 26.0716 59.6932 26.3469C60.1717 26.6223 60.7099 26.76 61.3092 26.76Z" fill="#11213A"/>
<path d="M72.6538 34.7744C72.1426 34.7744 71.6399 34.7219 71.1457 34.6183C70.6516 34.5147 70.1844 34.3429 69.7456 34.1044L70.4996 31.1618C70.7552 31.3052 71.0364 31.4174 71.3431 31.4968C71.6498 31.5763 71.9353 31.6161 72.1994 31.6161C72.6779 31.6161 73.0727 31.5125 73.3837 31.3052C73.6947 31.098 73.9261 30.7587 74.0781 30.2889L74.3294 29.5238L69.6149 17.3459H73.4078L76.3033 25.9821L79.1149 17.3459H82.8127L77.7389 30.8027C77.3399 31.8077 76.8812 32.5984 76.3629 33.1775C75.8446 33.7553 75.2738 34.1669 74.6518 34.4096C74.0298 34.6524 73.3638 34.7744 72.6538 34.7744Z" fill="#11213A"/>
<path d="M84.3917 29.4274V12.2019H87.8864V29.4274H84.3917Z" fill="#11213A"/>
<path d="M92.7927 15.4326C92.2105 15.4326 91.7078 15.2509 91.2847 14.8889C90.8615 14.5255 90.6499 14.0415 90.6499 13.4353C90.6499 12.8292 90.8615 12.3324 91.2847 11.9704C91.7078 11.607 92.2105 11.4268 92.7927 11.4268C93.3749 11.4268 93.8776 11.6085 94.3008 11.9704C94.724 12.3338 94.9356 12.8221 94.9356 13.4353C94.9356 14.0486 94.724 14.5255 94.3008 14.8889C93.8776 15.2523 93.3749 15.4326 92.7927 15.4326ZM91.0461 29.4273V17.346H94.5408V29.4273H91.0461Z" fill="#11213A"/>
<path d="M103.383 29.7864C102.083 29.7864 100.931 29.4954 99.9255 28.9134C98.9201 28.3314 98.132 27.5564 97.5626 26.5869C96.9917 25.6174 96.7063 24.5513 96.7063 23.3873C96.7063 22.5342 96.8696 21.7223 97.1976 20.9529C97.5242 20.1836 97.9872 19.5022 98.5864 18.9074C99.1843 18.3141 99.8914 17.8442 100.705 17.5021C101.519 17.1586 102.412 16.9883 103.386 16.9883C104.687 16.9883 105.837 17.2793 106.838 17.8613C107.839 18.4433 108.625 19.2183 109.195 20.1878C109.766 21.1573 110.052 22.2234 110.052 23.3873C110.052 24.2334 109.888 25.0425 109.56 25.8161C109.234 26.5897 108.772 27.2739 108.179 27.8673C107.585 28.4606 106.881 28.9305 106.067 29.2726C105.253 29.6161 104.36 29.7864 103.386 29.7864H103.383ZM103.383 26.7601C103.998 26.7601 104.548 26.6224 105.035 26.347C105.522 26.0716 105.904 25.6812 106.184 25.1745C106.463 24.6677 106.603 24.0715 106.603 23.3859C106.603 22.7003 106.465 22.0942 106.189 21.5917C105.914 21.0892 105.533 20.7002 105.046 20.4249C104.559 20.1495 104.005 20.0118 103.383 20.0118C102.761 20.0118 102.205 20.1495 101.715 20.4249C101.225 20.7002 100.841 21.0892 100.566 21.5917C100.29 22.0942 100.153 22.6918 100.153 23.3859C100.153 24.0801 100.292 24.6777 100.572 25.1802C100.851 25.6827 101.233 26.0716 101.72 26.347C102.208 26.6224 102.761 26.7601 103.383 26.7601Z" fill="#11213A"/>
<path d="M16.1983 0C29.896 0 34.6218 9.63408 34.6218 16.4746C34.6218 24.2804 31.6511 35.6477 13.2077 34.1061L1.67564 45.709C1.05793 46.3307 -0.00283437 45.8907 5.69131e-06 45.0149L0.0894678 14.74C0.411815 10.0514 5.20159 0 16.1983 0ZM26.0619 16.7471C26.0619 7.03357 15.8376 7.78732 13.523 7.78732C11.6713 7.78732 12.1086 8.75116 12.5588 9.23236L18.4434 15.9764C20.058 18.4974 17.864 19.1546 16.7067 19.156H10.7255C8.48754 19.156 8.18507 20.7615 8.3143 21.5649V28.0207C8.3143 28.888 8.79711 29.1762 9.56819 28.4054C10.1859 27.7894 11.2083 25.9965 12.5588 25.9C14.8748 25.9965 26.0619 27.2485 26.0619 16.7471Z" fill="url(#paint0_linear_137_2194)"/>
</g>
<defs>
<linearGradient id="paint0_linear_137_2194" x1="2.04627" y1="3.7801" x2="20.8896" y2="34.4092" gradientUnits="userSpaceOnUse">
<stop stop-color="#5BA0E8"/>
<stop offset="1" stop-color="#5C7DC4"/>
</linearGradient>
<clipPath id="clip0_137_2194">
<rect width="110" height="46" fill="white"/>
</clipPath>
</defs>
</svg>
